# File created by Blade
# Date/Time:  Tue Apr 07 20:41:02 2015
# Frame Rate: 120.000 fps
#------------------------------------------------------
:FULLY-SPECIFIED
:DEGREES
1309
root 5.452278 34.193947 -3.782584 16.656730 -17.637281 -50.397179
Spine 0.978667 22.883935 34.329120
Head 6.258620 -5.046080 15.732705
LeftShoulder -19.634072 22.403613 36.767042
LeftArm 85.652132 -77.080148 -57.450390
LeftForeArm 21.341804 0.000000 28.892745
LeftHand 11.865302 -0.000000 21.250716
LeftHandThumb1 -26.253704 0.000000 33.147579
RightShoulder -6.230253 35.838642 -29.801610
RightArm 61.727939 75.497375 97.148483
RightForeArm 40.948678 0.000000 58.528467
RightHand 1.592397 -0.000000 29.232483
RightHandThumb1 -24.326973 -0.000000 -32.862282
LeftUpLeg -7.694020 -4.350966 45.354537
LeftLeg 24.773697 -0.000000 -0.000000
LeftFoot -23.493673 17.980068 -26.776409
LeftToeBase -6.198124 -0.000000 0.000000
RightUpLeg -137.808754 -53.875145 24.679694
RightLeg -10.813846 -0.000000 0.000000
RightFoot 36.887260 -23.204329 16.675618
RightToeBase 23.367497 -0.000000 -0.000000
1310
root 5.418226 34.234587 -3.809733 16.827492 -17.660365 -50.548959
Spine 0.867298 22.978661 34.185807
Head 6.095916 -5.127349 16.172918
LeftShoulder -19.670846 22.369637 36.793501
LeftArm 85.948431 -77.216162 -57.595678
LeftForeArm 21.259747 -0.000000 28.761383
LeftHand 11.807147 -0.000000 21.342374
LeftHandThumb1 -26.253704 0.000000 33.147579
RightShoulder -6.277865 35.820862 -29.753972
RightArm 61.867868 75.462450 97.311867
RightForeArm 40.942569 -0.000000 58.511261
RightHand 1.529274 -0.000000 29.324907
RightHandThumb1 -24.326973 -0.000000 -32.862282
LeftUpLeg -7.438903 -4.458371 45.554092
LeftLeg 24.145705 -0.000000 -0.000000
LeftFoot -23.429026 18.197308 -26.986398
LeftToeBase -5.822321 -0.000000 0.000000
RightUpLeg -137.906453 -53.829309 24.681149
RightLeg -10.795672 -0.000000 0.000000
RightFoot 36.849707 -23.242447 16.586802
RightToeBase 23.584987 -0.000000 -0.000000
1311
root 5.384857 34.271395 -3.837984 16.990861 -17.686715 -50.687996
Spine 0.786150 23.056621 34.055284
Head 5.900463 -5.190552 16.515308
LeftShoulder -19.730166 22.353047 36.780783
LeftArm 86.797764 -77.344548 -58.368326
LeftForeArm 21.236095 0.000000 28.735700
LeftHand 11.837647 -0.000000 21.359184
LeftHandThumb1 -26.253704 0.000000 33.147579
RightShoulder -6.329495 35.841636 -29.741848
RightArm 61.936368 75.438707 97.420219
RightForeArm 40.927693 -0.000000 58.532359
RightHand 1.506258 0.000000 29.373012
RightHandThumb1 -24.326973 -0.000000 -32.862282
LeftUpLeg -7.216541 -4.443476 45.757659
LeftLeg 23.590973 -0.000000 -0.000000
LeftFoot -23.372123 18.200816 -27.301597
LeftToeBase -5.398350 -0.000000 0.000000
RightUpLeg -138.112767 -53.702908 24.798978
RightLeg -10.758539 -0.000000 0.000000
RightFoot 36.768931 -23.211634 16.582691
RightToeBase 23.490029 -0.000000 -0.000000
1312
root 5.352968 34.303884 -3.865337 17.165010 -17.705819 -50.808782
Spine 0.688757 23.126309 33.915260
Head 5.690529 -5.214065 16.779915
LeftShoulder -19.785841 22.215995 36.824858
LeftArm 87.554381 -77.339598 -59.144513
LeftForeArm 21.191516 -0.000000 28.805566
LeftHand 11.858616 -0.000000 21.423677
LeftHandThumb1 -26.253704 0.000000 33.147579
RightShoulder -6.335362 35.844514 -29.718210
RightArm 61.955643 75.449571 97.455914
RightForeArm 41.072937 -0.000000 58.576325
RightHand 1.592966 0.000000 29.273495
RightHandThumb1 -24.326973 -0.000000 -32.862282
LeftUpLeg -7.063543 -4.300323 45.959220
LeftLeg 23.133228 -0.000000 -0.000000
LeftFoot -23.243077 18.065707 -27.554890
LeftToeBase -5.125984 -0.000000 0.000000
RightUpLeg -138.377928 -53.543749 24.983261
RightLeg -10.779201 -0.000000 0.000000
RightFoot 36.764631 -23.098643 16.506481
RightToeBase 23.399799 -0.000000 -0.000000
1313
root 5.324767 34.332558 -3.893405 17.333720 -17.708510 -50.949305
Spine 0.626810 23.188212 33.836241
Head 5.424763 -5.254095 16.953704
LeftShoulder -19.815285 22.081484 36.856392
LeftArm 88.349052 -77.349787 -60.039571
LeftForeArm 21.162863 -0.000000 28.962123
LeftHand 11.872209 -0.000000 21.588367
LeftHandThumb1 -26.253704 0.000000 33.147579
RightShoulder -6.375114 35.799091 -29.769522
RightArm 62.132001 75.471156 97.676772
RightForeArm 41.165402 -0.000000 58.643032
RightHand 1.553796 -0.000000 29.303721
RightHandThumb1 -24.326973 -0.000000 -32.862282
LeftUpLeg -6.944739 -4.181872 46.175373
LeftLeg 22.726170 -0.000000 -0.000000
LeftFoot -23.147354 17.981303 -27.853913
LeftToeBase -4.897318 -0.000000 0.000000
RightUpLeg -138.628011 -53.384663 25.220173
RightLeg -10.860655 -0.000000 0.000000
RightFoot 36.712711 -23.037337 16.579174
RightToeBase 23.525777 -0.000000 -0.000000
1314
root 5.299449 34.357593 -3.921157 17.475294 -17.680183 -51.071455
Spine 0.590780 23.216578 33.774322
Head 5.123881 -5.267956 17.068339
LeftShoulder -19.850462 21.962060 36.872007
LeftArm 89.380118 -77.340830 -61.228054
LeftForeArm 21.142032 -0.000000 29.187659
LeftHand 11.864780 -0.000000 21.973507
LeftHandThumb1 -26.253704 0.000000 33.147579
RightShoulder -6.418572 35.826505 -29.814876
RightArm 62.138442 75.497407 97.700363
RightForeArm 41.193781 -0.000000 58.721789
RightHand 1.501686 -0.000000 29.511678
RightHandThumb1 -24.326973 -0.000000 -32.862282
LeftUpLeg -6.903405 -3.898254 46.406749
LeftLeg 22.431786 -0.000000 -0.000000
LeftFoot -22.958145 17.684883 -28.111426
LeftToeBase -4.747565 -0.000000 0.000000
RightUpLeg -138.810074 -53.287855 25.406204
RightLeg -10.985343 -0.000000 0.000000
RightFoot 36.697869 -22.953255 16.541618
RightToeBase 23.287070 -0.000000 -0.000000
1315
root 5.276691 34.378863 -3.949482 17.579796 -17.618348 -51.192600
Spine 0.600373 23.213115 33.758851
Head 4.789362 -5.273402 17.105331
LeftShoulder -19.869682 21.806932 36.873568
LeftArm 90.370653 -77.308768 -62.390457
LeftForeArm 21.227088 -0.000000 29.441445
LeftHand 11.769653 -0.000000 21.905335
LeftHandThumb1 -26.253704 0.000000 33.147579
RightShoulder -6.480642 35.817958 -29.879750
RightArm 62.166096 75.530440 97.713027
RightForeArm 41.206351 -0.000000 58.804428
RightHand 1.450965 -0.000000 29.528600
RightHandThumb1 -24.326973 -0.000000 -32.862282
LeftUpLeg -6.893811 -3.673870 46.639259
LeftLeg 22.191530 -0.000000 -0.000000
LeftFoot -22.843804 17.455376 -28.348616
LeftToeBase -4.568649 -0.000000 0.000000
RightUpLeg -138.920928 -53.264249 25.561892
RightLeg -11.130853 -0.000000 0.000000
RightFoot 36.635021 -22.893565 16.635239
RightToeBase 23.231989 -0.000000 -0.000000
